<svg fill="none" height="16" viewBox="0 0 16 16" width="16" xmlns="http://www.w3.org/2000/svg"><path d="m13.4067 2.92666c.3953.396.5933.88001.5933 1.45334 0 .56267-.198 1.042-.5933 1.438l-2.016 2 1.078 1.09333c.0504.04852.0903.10686.1172.17142.027.06456.0404.13396.0394.20391.0001.14555-.056.28551-.1566.39067-.0511.05129-.112.09159-.1792.11842s-.1392.03962-.2115.03758c-.0698.00095-.139-.01241-.2035-.03924-.0644-.02682-.1227-.06656-.1712-.11676l-1.078-1.094-5.53131 5.53137c-.0643.0742-.14451.133-.23467.172-.08333.0313-.17733.0466-.28133.0466h-1.85933c-.19176.0022-.37675-.0708-.51534-.2033-.13261-.1385-.20561-.3236-.20333-.5153v-1.86c0-.1034.01533-.1974.04667-.2807.03894-.0902.09774-.1704.172-.2347l5.53133-5.5313-1.09333-1.078c-.05032-.04844-.09018-.10668-.11713-.17112-.02694-.06443-.0404-.13371-.03954-.20355 0-.15667.052-.28667.156-.39067.10527-.10037.24521-.15625.39067-.15599.14666 0 .27133.05199.37533.15599l1.09333 1.078 1.99998-2.01533c.1864-.19202.4102-.3438.6575-.44596.2473-.10217.513-.15255.7805-.14804.5734 0 1.0574.198 1.4534.59333zm-8.97004 10.32934 5.40666-5.40667-1.36-1.35933-5.406 5.4067v1.3593h1.36z" fill="#000"/></svg>